<svg xmlns="http://www.w3.org/2000/svg" viewBox="0 0 432 416" stroke="currentColor" stroke-width="10px" xml:space="preserve"><path fill-opacity="0" d="M225 67.67c8.833.002 17.165-.012 25.498.01 12.318.031 19.113 6.59 19.6 19.008.15 3.828.13 7.668.027 11.498-.086 3.176 1.275 4.396 4.46 4.495 7.476.234 14.955-.471 22.436.808 14.64 2.503 25.051 14.024 25.238 29.098.238 19.162.308 38.332-.013 57.491-.095 5.645 1.18 9.055 6.998 10.612 3.966 1.061 7.861 2.847 11.402 4.957 17.43 10.386 21.053 31.68 7.942 47.14-4.514 5.324-9.685 10.095-14.618 15.056-7.756 7.799-15.445 15.669-23.392 23.27-5.27 5.04-11.168 5.788-16.997 2.831-4.474-2.269-7.17-7.453-6.698-12.972.364-4.25 2.78-7.396 5.658-10.274 10.958-10.956 21.932-21.898 32.87-32.876 5.374-5.394 4.876-7.88-2.304-10.577-33.183-12.465-66.41-24.818-99.572-37.34-4.47-1.687-8.482-1.725-13.01-.01-33.146 12.551-66.378 24.87-99.56 37.323-7.63 2.864-7.977 4.873-2.142 10.718a16364.94 16364.94 0 0 0 32.173 32.164c2.637 2.627 4.859 5.452 5.766 9.172 1.217 4.994-.05 9.345-3.721 12.752-3.8 3.526-8.378 4.691-13.432 2.885-2.377-.849-4.517-2.135-6.314-3.936-12.36-12.385-24.991-24.514-36.998-37.232-12.855-13.617-11.234-34.312 3.021-45.56 4.782-3.773 10.414-5.926 16.133-7.736 4.098-1.296 5.707-3.608 5.651-8.03-.217-17.329-.11-34.662-.074-51.994.012-6.022.599-12.042 2.668-17.696 4.647-12.702 14.818-19.54 29.345-20 5.327-.168 10.67-.195 15.995-.003 3.737.134 5.105-1.488 5.002-5.041-.11-3.83-.087-7.668.032-11.498.368-11.818 7.187-18.48 18.933-18.507 13.832-.03 27.665-.006 41.997-.005m-70.529 114.18c13.884-5.145 27.928-9.9 41.604-15.548 12.852-5.309 25.034-6.932 38.505-1.182 18.03 7.696 36.735 13.812 55.144 20.623 5.038 1.864 5.934 1.342 5.946-3.95.034-14.994.052-29.988-.036-44.981-.033-5.438-1.466-6.8-6.896-6.802-47.814-.025-95.627-.025-143.44.003-5.363.003-6.817 1.366-6.855 6.852-.105 15.327.004 30.654-.069 45.981-.019 4.072 1.953 4.455 5.116 3.234 3.416-1.319 6.836-2.626 10.981-4.23zM301.365 341.536c-28.008 11.414-54.159 7.68-78.892-8.097-4.161-2.655-6.932-2.482-11.027.157-15.167 9.777-31.844 15.333-50.037 14.546-16.48-.712-31.558-6.36-45.303-15.391-3.067-2.016-5.218-2.126-8.42.02-9.614 6.45-20.318 10.708-31.51 13.519-7.982 2.004-14.778-2.026-16.845-9.333-1.852-6.549 1.822-13.776 9.287-16.057 12.775-3.903 24.213-9.967 34.765-18.112 6.175-4.767 11.914-4.138 18.283.769 9.42 7.255 19.284 13.51 31.066 16.485 12.1 3.055 23.445 1.179 34.487-3.889 6.685-3.067 12.87-7.004 18.618-11.604 7.986-6.392 13.979-6.394 21.985-.128 8.715 6.82 18.032 12.465 28.881 15.381 14.404 3.872 27.682.958 40.362-6.115 5.246-2.927 10.173-6.336 14.92-10.027 6.755-5.252 13.002-5.543 19.562-.174 9.832 8.048 20.716 13.718 32.952 17.153 7.97 2.238 11.547 9.112 9.514 16.683-1.85 6.894-8.193 10.765-16.07 8.933-11.577-2.693-22.529-7.177-32.43-13.843-2.652-1.785-4.546-1.757-7.117-.012-5.236 3.554-10.781 6.614-17.031 9.136z"/></svg>