<svg version="1.1" id="Layer_1" xmlns="http://www.w3.org/2000/svg" xmlns:xlink="http://www.w3.org/1999/xlink" x="0px" y="0px"
	 width="100%" viewBox="0 0 432 416" enable-background="new 0 0 432 416" xml:space="preserve">
<path fill="currentColor" opacity="1.000000" stroke="none"
	d="
M225.000061,67.670792 
	C233.832626,67.672256 242.165237,67.658119 250.497726,67.679649 
	C262.816132,67.711479 269.611389,74.269501 270.098267,86.688362 
	C270.248291,90.515808 270.227631,94.355682 270.124512,98.185539 
	C270.038940,101.362465 271.399841,102.581711 274.584534,102.681389 
	C282.060547,102.915382 289.539520,102.209595 297.021179,103.488670 
	C311.661133,105.991531 322.072052,117.513306 322.259338,132.586838 
	C322.497467,151.748856 322.567139,170.919174 322.245911,190.078140 
	C322.151306,195.723068 323.426086,199.133011 329.244110,200.690033 
	C333.209869,201.751328 337.105347,203.537079 340.646027,205.646988 
	C358.075287,216.033218 361.698669,237.326538 348.587952,252.787827 
	C344.074127,258.110962 338.903137,262.881989 333.969757,267.843018 
	C326.214478,275.641754 318.525024,283.511993 310.578461,291.112274 
	C305.308838,296.152313 299.410217,296.900726 293.580750,293.944092 
	C289.106903,291.674988 286.410980,286.490936 286.883453,280.972107 
	C287.247345,276.721252 289.662384,273.576355 292.540894,270.698303 
	C303.499359,259.741608 314.473206,248.800186 325.410431,237.822342 
	C330.784821,232.428040 330.286652,229.941910 323.107483,227.245117 
	C289.923645,214.779922 256.697601,202.426865 223.535004,189.905655 
	C219.065414,188.218063 215.052658,188.180313 210.524277,189.895111 
	C177.379410,202.446182 144.146698,214.765060 110.964645,227.218369 
	C103.334961,230.081802 102.988052,232.091324 108.822525,237.936172 
	C119.535843,248.668503 130.252716,259.397339 140.995804,270.099823 
	C143.632721,272.726776 145.854874,275.551971 146.761887,279.272034 
	C147.979446,284.265747 146.711945,288.617157 143.040634,292.023895 
	C139.241180,295.549561 134.662766,296.715088 129.609100,294.909363 
	C127.232353,294.060150 125.091621,292.774384 123.294548,290.973480 
	C110.935242,278.587921 98.304008,266.458893 86.297165,253.740509 
	C73.442230,240.123764 75.063126,219.428741 89.318359,208.181015 
	C94.100006,204.408188 99.731728,202.254547 105.451134,200.445389 
	C109.549149,199.149078 111.157516,196.836548 111.102051,192.414948 
	C110.884682,175.085983 110.992790,157.752625 111.027832,140.421005 
	C111.040016,134.398636 111.626831,128.379242 113.695694,122.724640 
	C118.343040,110.022507 128.513565,103.185257 143.040665,102.725601 
	C148.368423,102.557030 153.710831,102.530228 159.036362,102.721748 
	C162.772949,102.856102 164.140594,101.233749 164.037827,97.680634 
	C163.927063,93.851364 163.951157,90.012909 164.070374,86.183250 
	C164.438263,74.364799 171.257050,67.702698 183.003143,67.676369 
	C196.835373,67.645355 210.667755,67.670403 225.000061,67.670792 
M154.471405,181.850876 
	C168.354736,176.705826 182.399124,171.950745 196.074646,166.302536 
	C208.927429,160.994125 221.109070,159.370758 234.579895,165.120575 
	C252.610382,172.816650 271.314911,178.932571 289.723846,185.743637 
	C294.762054,187.607697 295.658173,187.085724 295.670074,181.793961 
	C295.703796,166.800247 295.722046,151.806076 295.633545,136.812744 
	C295.601440,131.374863 294.168335,130.013626 288.738007,130.010803 
	C240.924393,129.985886 193.110779,129.985672 145.297180,130.013962 
	C139.935333,130.017136 138.480637,131.380280 138.442963,136.866394 
	C138.337723,152.192673 138.446579,167.520355 138.374496,182.847015 
	C138.355331,186.919083 140.326813,187.302063 143.489807,186.080948 
	C146.905640,184.762253 150.325745,183.454666 154.471405,181.850876 
z"/>
<path fill="currentColor" opacity="1.000000" stroke="none"
	d="
M301.364868,341.535522 
	C273.357239,352.949982 247.206268,349.215149 222.472763,333.438507 
	C218.311661,330.784332 215.540833,330.956512 211.445892,333.596100 
	C196.278885,343.372864 179.601547,348.929077 161.409256,348.142487 
	C144.928238,347.429901 129.850815,341.782593 116.106354,332.750824 
	C113.039024,330.735260 110.887566,330.624512 107.686745,332.771637 
	C98.072388,339.221069 87.368446,343.478882 76.175278,346.290009 
	C68.194244,348.294403 61.397869,344.263733 59.331013,336.956696 
	C57.478794,330.408478 61.152607,323.181152 68.618362,320.900299 
	C81.393204,316.997375 92.830727,310.932892 103.382835,302.787720 
	C109.557823,298.021271 115.296936,298.650238 121.666115,303.556519 
	C131.085098,310.812073 140.950394,317.067169 152.732315,320.042114 
	C164.832428,323.097382 176.176758,321.220612 187.218796,316.153473 
	C193.903580,313.085846 200.088455,309.148895 205.836807,304.548523 
	C213.823151,298.157135 219.815704,298.154938 227.821884,304.420807 
	C236.536987,311.241486 245.854233,316.886139 256.703033,319.802155 
	C271.106903,323.673767 284.385010,320.760193 297.064514,313.686920 
	C302.310638,310.760345 307.238068,307.351440 311.985016,303.660187 
	C318.739685,298.407776 324.986847,298.117065 331.546692,303.486084 
	C341.379059,311.533508 352.262512,317.203644 364.499481,320.639221 
	C372.469666,322.876862 376.045807,329.751495 374.013123,337.321930 
	C372.162140,344.215637 365.820068,348.087067 357.943634,346.255005 
	C346.366333,343.562103 335.414398,339.078430 325.512482,332.412109 
	C322.861328,330.627197 320.966553,330.654510 318.395813,332.399689 
	C313.160278,335.953949 307.614624,339.014221 301.364868,341.535522 
z"/>
</svg>