<svg version="1.1" id="Layer_1" xmlns="http://www.w3.org/2000/svg" xmlns:xlink="http://www.w3.org/1999/xlink" x="0px" y="0px"
	 width="100%" viewBox="0 0 612 612" enable-background="new 0 0 612 612" xml:space="preserve">
<path fill="#000000" opacity="1.000000" stroke="none" 
	d="
M388.000000,613.000000 
	C258.666687,613.000000 129.833374,613.000000 1.000052,613.000000 
	C1.000035,409.000061 1.000035,205.000122 1.000017,1.000134 
	C204.999893,1.000089 408.999786,1.000089 612.999756,1.000045 
	C612.999878,204.999863 612.999878,408.999725 612.999939,612.999756 
	C538.166687,613.000000 463.333344,613.000000 388.000000,613.000000 
M221.808975,336.706909 
	C221.140518,345.069580 219.427338,353.463226 221.428253,362.321625 
	C225.105789,359.692200 227.918564,357.992096 230.370834,355.874512 
	C241.754089,346.044830 250.250153,334.543579 249.959213,318.644501 
	C249.569443,297.343628 237.603897,281.217194 225.849182,264.672974 
	C213.411041,273.789703 202.260941,283.428833 194.051208,295.957367 
	C185.418716,309.131073 183.518906,323.162323 192.521729,336.657715 
	C198.675079,345.881744 206.592529,353.928864 213.721298,362.502167 
	C214.441223,362.304596 215.161148,362.107056 215.881073,361.909515 
	C217.795166,348.347260 220.135040,334.851929 221.837418,321.434479 
	C221.949600,326.262543 222.061768,331.090607 221.808975,336.706909 
M224.708435,445.685211 
	C224.833420,445.813721 224.958420,445.942200 224.783859,446.692078 
	C220.681564,450.098663 216.579285,453.505219 211.879150,457.408264 
	C201.126709,442.852844 190.026123,428.963959 180.210999,414.219391 
	C170.403793,399.486694 161.653702,384.006683 157.068939,366.645599 
	C169.048172,391.746338 184.564194,414.607727 200.424820,437.341675 
	C207.853653,431.553772 216.590286,411.716217 217.078934,401.942230 
	C218.011368,383.291351 209.801437,368.551666 197.841110,355.396667 
	C183.388016,339.499908 165.796921,327.367828 148.433792,314.996887 
	C145.686722,313.039642 143.229263,313.301910 142.060608,316.914307 
	C140.717163,321.066986 139.253708,325.203064 138.269165,329.445404 
	C135.376801,341.908264 132.695969,354.420197 129.177475,367.360962 
	C129.120026,373.450897 128.960312,379.542358 129.050568,385.630096 
	C129.092392,388.450958 129.621140,391.264648 129.991562,394.915039 
	C132.030380,400.815247 133.221588,407.199677 136.264709,412.526093 
	C145.933304,429.449158 162.533340,435.854004 180.387146,440.033264 
	C184.717148,441.046844 190.136932,441.256165 192.975769,443.992828 
	C199.023804,449.823120 203.675415,457.094330 208.981171,463.709381 
	C209.942566,464.908020 211.599991,466.840668 212.402771,466.606445 
	C214.097870,466.111938 215.702621,464.616608 216.865112,463.151520 
	C218.561554,461.013519 219.465973,458.165070 221.368790,456.290009 
	C225.177887,452.536346 229.051453,449.340271 235.396820,449.732086 
	C240.551239,450.050354 246.118576,448.711731 251.038986,446.869293 
	C267.392456,440.745880 273.933472,427.457245 273.761292,411.139618 
	C273.632599,398.948120 271.355164,386.776062 269.964691,374.603302 
	C269.599518,371.406921 267.140228,371.336823 265.158569,372.441315 
	C251.132278,380.258759 236.609238,387.207550 225.199280,399.135529 
	C211.741608,413.204224 211.854980,427.159332 219.027695,442.921875 
	C219.993637,445.044586 221.387863,447.165131 224.708435,445.685211 
M366.862366,482.565186 
	C366.926331,471.076630 366.990295,459.588043 367.920563,448.012299 
	C371.000641,448.341492 374.086517,448.989990 377.159637,448.934601 
	C383.919189,448.812775 390.671875,448.075562 397.428192,448.063446 
	C407.696899,448.045044 417.486481,445.842072 426.837158,441.896149 
	C433.715057,438.993652 440.813507,435.953979 444.574951,428.834595 
	C450.235413,418.120758 455.706512,407.305115 461.139496,396.473267 
	C468.448059,381.902222 475.655304,367.280182 482.847961,352.651489 
	C483.150879,352.035400 483.139038,350.647125 482.802948,350.458771 
	C482.029968,350.025513 480.701660,349.679932 480.070984,350.067413 
	C478.280212,351.167633 476.787445,352.738495 475.069305,353.973816 
	C458.018555,366.233551 438.550568,370.941895 417.052094,372.037048 
	C398.462189,372.051605 379.872253,372.066132 361.035461,371.232941 
	C361.690155,361.404480 362.433472,351.580322 362.906769,341.743134 
	C362.980225,340.216492 361.818695,338.630463 361.228271,337.071869 
	C359.881165,337.849243 358.139069,338.320435 357.257019,339.458313 
	C353.880554,343.813965 350.824982,348.416473 347.567444,352.866699 
	C341.902527,360.605652 336.183136,368.304810 330.474731,376.011902 
	C321.861725,387.640625 313.205475,399.237732 304.700317,410.944641 
	C304.179443,411.661591 304.391449,413.548035 304.991150,414.334991 
	C308.059906,418.361786 311.305969,422.259369 314.603729,426.104614 
	C324.786621,437.978149 335.033936,449.796448 345.230774,461.658112 
	C351.215820,468.620300 357.116089,475.656097 363.176819,482.551270 
	C363.684662,483.128998 365.125977,482.886230 366.862366,482.565186 
M306.018494,154.524429 
	C312.691223,162.081406 320.007538,169.172546 325.890869,177.300888 
	C335.523621,190.609497 342.302643,205.503372 347.098267,221.264236 
	C349.283142,228.444855 349.376801,228.428711 342.996735,232.503143 
	C341.496521,233.461227 339.947723,234.345612 338.399780,235.226105 
	C331.965332,238.886063 325.522675,242.531525 319.083038,246.182312 
	C319.124847,246.668854 319.166626,247.155411 319.208405,247.641953 
	C349.786957,252.373444 380.365509,257.104919 411.220642,261.879211 
	C422.673248,233.213470 433.973755,204.928467 445.274231,176.643478 
	C444.906067,176.250198 444.537903,175.856918 444.169739,175.463638 
	C434.303436,180.991058 424.437103,186.518478 414.409393,192.136322 
	C413.981873,191.595963 413.590088,191.243729 413.375885,190.804810 
	C412.520721,189.052658 411.687347,187.288162 410.905518,185.502151 
	C403.074585,167.613297 392.475647,151.673645 377.975250,138.443085 
	C372.781097,133.703812 367.453522,130.647888 359.728851,130.796127 
	C332.424805,131.320084 305.104553,131.001404 277.790466,131.002167 
	C275.910797,131.002213 274.031158,131.002182 272.504486,131.002182 
	C283.636414,138.757523 294.577026,146.379562 306.018494,154.524429 
M446.674927,271.039398 
	C429.764191,282.204071 412.946014,293.514008 395.859802,304.403351 
	C392.678192,306.431030 392.642975,308.042877 394.240448,310.587463 
	C398.374237,317.171967 402.466034,323.788239 406.799042,330.241119 
	C415.192139,342.740387 423.739349,355.136200 432.328705,367.730286 
	C446.788208,363.715790 461.191833,359.400513 473.241333,349.910828 
	C480.718842,344.021912 485.942291,337.052643 485.204865,326.382660 
	C484.534180,316.679138 481.709869,307.921539 476.874573,299.830475 
	C471.315033,290.527527 465.286316,281.478149 459.007233,272.641357 
	C454.740845,266.637115 452.901245,266.674622 446.674927,271.039398 
M214.604050,193.920486 
	C227.913696,201.950638 241.227402,209.974045 254.531326,218.013657 
	C261.613617,222.293533 268.679016,226.601395 275.847473,230.954605 
	C282.123657,220.829575 288.149017,211.231674 294.049042,201.557327 
	C300.209442,191.455994 306.175781,181.235657 312.400238,171.174561 
	C313.729889,169.025375 313.857971,167.269638 312.097656,165.680923 
	C302.689453,157.189835 294.034088,147.518814 283.550262,140.648865 
	C268.982178,131.102524 261.754852,132.620163 250.323990,142.569031 
	C234.365784,156.458313 223.385605,174.441498 214.604050,193.920486 
z"/>
<path fill="currentColor" opacity="1.000000" stroke="none"
	d="
M417.978516,372.172791 
	C438.550568,370.941895 458.018555,366.233551 475.069305,353.973816 
	C476.787445,352.738495 478.280212,351.167633 480.070984,350.067413 
	C480.701660,349.679932 482.029968,350.025513 482.802948,350.458771 
	C483.139038,350.647125 483.150879,352.035400 482.847961,352.651489 
	C475.655304,367.280182 468.448059,381.902222 461.139496,396.473267 
	C455.706512,407.305115 450.235413,418.120758 444.574951,428.834595 
	C440.813507,435.953979 433.715057,438.993652 426.837158,441.896149 
	C417.486481,445.842072 407.696899,448.045044 397.428192,448.063446 
	C390.671875,448.075562 383.919189,448.812775 377.159637,448.934601 
	C374.086517,448.989990 371.000641,448.341492 367.184113,448.332947 
	C366.342957,460.110596 366.238251,471.567627 366.133575,483.024658 
	C365.125977,482.886230 363.684662,483.128998 363.176819,482.551270 
	C357.116089,475.656097 351.215820,468.620300 345.230774,461.658112 
	C335.033936,449.796448 324.786621,437.978149 314.603729,426.104614 
	C311.305969,422.259369 308.059906,418.361786 304.991150,414.334991 
	C304.391449,413.548035 304.179443,411.661591 304.700317,410.944641 
	C313.205475,399.237732 321.861725,387.640625 330.474731,376.011902 
	C336.183136,368.304810 341.902527,360.605652 347.567444,352.866699 
	C350.824982,348.416473 353.880554,343.813965 357.257019,339.458313 
	C358.139069,338.320435 359.881165,337.849243 361.228271,337.071899 
	C361.818695,338.630463 362.980225,340.216492 362.906769,341.743134 
	C362.433472,351.580322 361.690155,361.404480 361.459473,371.898804 
	C380.128448,372.630157 398.373383,372.699921 416.618378,372.736328 
	C417.071381,372.737213 417.525116,372.368896 417.978516,372.172791 
z"/>
<path fill="currentColor" opacity="1.000000" stroke="none"
	d="
M129.932297,366.912933 
	C132.695969,354.420197 135.376801,341.908264 138.269165,329.445404 
	C139.253708,325.203064 140.717163,321.066986 142.060608,316.914307 
	C143.229263,313.301910 145.686722,313.039642 148.433792,314.996887 
	C165.796921,327.367828 183.388016,339.499908 197.841110,355.396667 
	C209.801437,368.551666 218.011368,383.291351 217.078934,401.942230 
	C216.590286,411.716217 207.853653,431.553772 200.424820,437.341675 
	C184.564194,414.607727 169.048172,391.746338 157.068939,366.645599 
	C161.653702,384.006683 170.403793,399.486694 180.210999,414.219391 
	C190.026123,428.963959 201.126709,442.852844 211.879150,457.408264 
	C216.579285,453.505219 220.681564,450.098663 225.280365,446.183136 
	C226.031418,444.762207 226.285980,443.850220 226.540543,442.938202 
	C226.332291,442.858032 226.124023,442.777863 225.915771,442.697693 
	C225.390488,443.562958 224.865219,444.428253 224.339951,445.293518 
	C221.387863,447.165131 219.993637,445.044586 219.027695,442.921875 
	C211.854980,427.159332 211.741608,413.204224 225.199280,399.135529 
	C236.609238,387.207550 251.132278,380.258759 265.158569,372.441315 
	C267.140228,371.336823 269.599518,371.406921 269.964691,374.603302 
	C271.355164,386.776062 273.632599,398.948120 273.761292,411.139618 
	C273.933472,427.457245 267.392456,440.745880 251.038986,446.869293 
	C246.118576,448.711731 240.551239,450.050354 235.396820,449.732086 
	C229.051453,449.340271 225.177887,452.536346 221.368790,456.290009 
	C219.465973,458.165070 218.561554,461.013519 216.865112,463.151520 
	C215.702621,464.616608 214.097870,466.111938 212.402771,466.606445 
	C211.599991,466.840668 209.942566,464.908020 208.981171,463.709381 
	C203.675415,457.094330 199.023804,449.823120 192.975769,443.992828 
	C190.136932,441.256165 184.717148,441.046844 180.387146,440.033264 
	C162.533340,435.854004 145.933304,429.449158 136.264709,412.526093 
	C133.221588,407.199677 132.030380,400.815247 129.997787,394.026611 
	C129.980103,384.396423 129.956207,375.654694 129.932297,366.912933 
M234.289261,435.901886 
	C234.647339,435.052643 235.005417,434.203369 235.363510,433.354095 
	C235.116653,433.260498 234.869781,433.166870 234.622925,433.073242 
	C234.244766,433.871704 233.866608,434.670166 234.289261,435.901886 
M238.546463,429.692719 
	C238.988052,429.517120 239.429626,429.341522 239.871216,429.165924 
	C239.492599,429.095642 239.113968,429.025360 238.546463,429.692719 
z"/>
<path fill="currentColor" opacity="1.000000" stroke="none"
	d="
M305.768066,154.263000 
	C294.577026,146.379562 283.636414,138.757523 272.504486,131.002182 
	C274.031158,131.002182 275.910797,131.002213 277.790466,131.002167 
	C305.104553,131.001404 332.424805,131.320084 359.728851,130.796127 
	C367.453522,130.647888 372.781097,133.703812 377.975250,138.443085 
	C392.475647,151.673645 403.074585,167.613297 410.905518,185.502151 
	C411.687347,187.288162 412.520721,189.052658 413.375885,190.804810 
	C413.590088,191.243729 413.981873,191.595963 414.409393,192.136322 
	C424.437103,186.518478 434.303436,180.991058 444.169739,175.463638 
	C444.537903,175.856918 444.906067,176.250198 445.274231,176.643478 
	C433.973755,204.928467 422.673248,233.213470 411.220642,261.879211 
	C380.365509,257.104919 349.786957,252.373444 319.208405,247.641953 
	C319.166626,247.155411 319.124847,246.668854 319.083038,246.182312 
	C325.522675,242.531525 331.965332,238.886063 338.399780,235.226105 
	C339.947723,234.345612 341.496521,233.461227 342.996735,232.503143 
	C349.376801,228.428711 349.283142,228.444855 347.098267,221.264236 
	C342.302643,205.503372 335.523621,190.609497 325.890869,177.300888 
	C320.007538,169.172546 312.691223,162.081406 305.768066,154.263000 
z"/>
<path fill="currentColor" opacity="1.000000" stroke="none"
	d="
M447.047852,270.985840 
	C452.901245,266.674622 454.740845,266.637115 459.007233,272.641357 
	C465.286316,281.478149 471.315033,290.527527 476.874573,299.830475 
	C481.709869,307.921539 484.534180,316.679138 485.204865,326.382660 
	C485.942291,337.052643 480.718842,344.021912 473.241333,349.910828 
	C461.191833,359.400513 446.788208,363.715790 432.328705,367.730286 
	C423.739349,355.136200 415.192139,342.740387 406.799042,330.241119 
	C402.466034,323.788239 398.374237,317.171967 394.240448,310.587463 
	C392.642975,308.042877 392.678192,306.431030 395.859802,304.403351 
	C412.946014,293.514008 429.764191,282.204071 447.047852,270.985840 
z"/>
<path fill="currentColor" opacity="1.000000" stroke="none"
	d="
M214.346512,193.644073 
	C223.385605,174.441498 234.365784,156.458313 250.323990,142.569031 
	C261.754852,132.620163 268.982178,131.102524 283.550262,140.648865 
	C294.034088,147.518814 302.689453,157.189835 312.097656,165.680923 
	C313.857971,167.269638 313.729889,169.025375 312.400238,171.174561 
	C306.175781,181.235657 300.209442,191.455994 294.049042,201.557327 
	C288.149017,211.231674 282.123657,220.829575 275.847473,230.954605 
	C268.679016,226.601395 261.613617,222.293533 254.531326,218.013657 
	C241.227402,209.974045 227.913696,201.950638 214.346512,193.644073 
z"/>
<path fill="currentColor" opacity="1.000000" stroke="none"
	d="
M221.029831,321.129547 
	C220.135040,334.851929 217.795166,348.347260 215.881073,361.909515 
	C215.161148,362.107056 214.441223,362.304596 213.721298,362.502167 
	C206.592529,353.928864 198.675079,345.881744 192.521729,336.657715 
	C183.518906,323.162323 185.418716,309.131073 194.051208,295.957367 
	C202.260941,283.428833 213.411041,273.789703 225.849182,264.672974 
	C237.603897,281.217194 249.569443,297.343628 249.959213,318.644501 
	C250.250153,334.543579 241.754089,346.044830 230.370834,355.874512 
	C227.918564,357.992096 225.105789,359.692200 221.428253,362.321625 
	C219.427338,353.463226 221.140518,345.069580 222.188721,335.960876 
	C222.568451,328.428497 222.568451,321.642151 222.568451,314.855804 
	C222.055573,314.870300 221.542709,314.884827 221.029831,314.899323 
	C221.029831,316.976074 221.029831,319.052795 221.029831,321.129547 
z"/>
<path fill="#F9D35D" opacity="1.000000" stroke="none" 
	d="
M417.515320,372.104919 
	C417.525116,372.368896 417.071381,372.737213 416.618378,372.736328 
	C398.373383,372.699921 380.128448,372.630157 361.582947,372.322693 
	C379.872253,372.066132 398.462189,372.051605 417.515320,372.104919 
z"/>
<path fill="#F9D35D" opacity="1.000000" stroke="none" 
	d="
M366.497986,482.794922 
	C366.238251,471.567627 366.342957,460.110596 366.750946,448.376526 
	C366.990295,459.588043 366.926331,471.076630 366.497986,482.794922 
z"/>
<path fill="#F9D35D" opacity="1.000000" stroke="none" 
	d="
M221.433624,321.282013 
	C221.029831,319.052795 221.029831,316.976074 221.029831,314.899323 
	C221.542709,314.884827 222.055573,314.870300 222.568451,314.855804 
	C222.568451,321.642151 222.568451,328.428497 222.371185,335.566772 
	C222.061768,331.090607 221.949600,326.262543 221.433624,321.282013 
z"/>
<path fill="#F9D35D" opacity="1.000000" stroke="none" 
	d="
M129.554886,367.136963 
	C129.956207,375.654694 129.980103,384.396423 129.966568,393.609863 
	C129.621140,391.264648 129.092392,388.450958 129.050568,385.630096 
	C128.960312,379.542358 129.120026,373.450897 129.554886,367.136963 
z"/>
<path fill="#000000" opacity="1.000000" stroke="none" 
	d="
M233.888855,435.685242 
	C233.866608,434.670166 234.244766,433.871704 234.622925,433.073242 
	C234.869781,433.166870 235.116653,433.260498 235.363510,433.354095 
	C235.005417,434.203369 234.647339,435.052643 233.888855,435.685242 
z"/>
<path fill="#000000" opacity="1.000000" stroke="none" 
	d="
M224.524200,445.489380 
	C224.865219,444.428253 225.390488,443.562958 225.915771,442.697693 
	C226.124023,442.777863 226.332291,442.858032 226.540543,442.938202 
	C226.285980,443.850220 226.031418,444.762207 225.430130,445.872437 
	C224.958420,445.942200 224.833420,445.813721 224.524200,445.489380 
z"/>
<path fill="#000000" opacity="1.000000" stroke="none" 
	d="
M238.640900,429.323914 
	C239.113968,429.025360 239.492599,429.095642 239.871216,429.165924 
	C239.429626,429.341522 238.988052,429.517120 238.640900,429.323914 
z"/>
</svg>