<svg version="1.1" id="Layer_1" xmlns="http://www.w3.org/2000/svg" xmlns:xlink="http://www.w3.org/1999/xlink" x="0px" y="0px"
	 width="100%" viewBox="0 0 448 336" enable-background="new 0 0 448 336" stroke="currentColor" stroke-width="10px" xml:space="preserve">
<path fill-opacity="0" stroke="none"
	d="
M196.018967,57.672951 
	C199.865036,58.063000 203.458130,56.740894 206.572830,58.797737 
	C207.041626,61.262020 205.239334,62.278019 204.036850,63.518787 
	C200.558624,67.107727 196.952957,70.572670 193.437698,74.126244 
	C186.672836,80.964828 180.134567,87.578011 170.346497,90.827621 
	C160.951172,93.946854 154.272583,101.981644 147.184174,108.729141 
	C139.369003,116.168442 130.630173,120.101746 119.746025,119.495308 
	C113.260887,119.133972 112.929565,119.662102 112.920166,126.118454 
	C112.892509,145.114349 112.970268,164.110474 112.912224,183.106232 
	C112.902069,186.430283 113.324547,189.197723 117.342926,189.547287 
	C129.035019,190.564255 137.716400,197.115326 145.644714,204.974838 
	C156.767715,216.001328 167.786987,227.132416 178.893448,238.175690 
	C184.795532,244.044174 189.806366,243.267090 193.976715,235.949417 
	C199.323410,226.567642 209.118698,225.043610 217.034836,232.399445 
	C219.108536,234.326355 220.989288,236.464615 223.100250,238.347015 
	C227.566391,242.329666 232.731644,243.723663 238.332199,241.278793 
	C243.964828,238.819901 247.934875,234.751801 248.751617,228.288376 
	C250.266342,216.301132 259.631866,211.423203 270.554901,216.926376 
	C279.299469,221.331985 286.021027,219.019577 289.679382,210.541946 
	C291.802521,205.621872 290.045532,201.535797 286.797546,198.223923 
	C274.083374,185.259613 261.114563,172.545364 248.328049,159.651230 
	C246.049500,157.353485 244.360565,157.446884 242.066193,159.619247 
	C236.507095,164.882690 230.783569,169.973846 225.084091,175.087402 
	C208.843079,189.658844 183.286118,186.451218 170.623444,172.877655 
	C154.920868,156.045532 155.014328,132.635254 171.356079,116.254852 
	C184.987396,102.591309 199.030548,89.255722 213.719177,76.747032 
	C244.732040,50.336800 290.558624,51.606438 320.683014,78.986847 
	C323.023926,81.114517 325.787506,82.873772 327.762878,85.288361 
	C333.015259,91.708664 339.600586,93.148247 347.638336,92.883881 
	C364.283508,92.336388 380.959290,92.707100 397.622498,92.726219 
	C406.928680,92.736893 410.115692,95.724480 410.127991,104.838730 
	C410.177063,141.164413 410.196808,177.490341 410.110413,213.815903 
	C410.080444,226.424820 403.048889,233.425369 390.542236,233.295990 
	C383.418304,233.222275 376.228394,234.271042 369.165924,232.335968 
	C366.864868,231.705475 364.408081,230.993546 363.007172,229.228226 
	C359.624695,224.965866 355.222900,224.948608 350.450104,225.023163 
	C339.455078,225.194946 328.454498,225.161789 317.458527,225.024017 
	C314.303223,224.984482 312.157379,225.916794 310.449554,228.673203 
	C303.042572,240.627747 291.738373,245.811981 278.138702,246.121445 
	C273.556915,246.225708 270.687042,247.357361 267.860565,251.255020 
	C255.868317,267.791870 232.804001,275.882385 212.024170,263.794556 
	C209.606812,262.388367 207.696426,262.192078 205.142471,263.657745 
	C188.626953,273.135864 172.836685,271.058319 159.205826,257.615265 
	C147.342712,245.915573 135.627945,234.065491 123.841698,222.287796 
	C122.781837,221.228668 121.756500,220.113388 120.582001,219.194305 
	C115.263145,215.032135 113.487030,215.565979 111.353783,221.866516 
	C109.042313,228.693466 103.104744,233.061523 95.372856,233.301086 
	C89.546127,233.481659 83.709641,233.378052 77.877701,233.353409 
	C66.134041,233.303772 58.910946,226.125443 58.889877,214.275040 
	C58.836853,184.448013 58.869972,154.620834 58.870361,124.793709 
	C58.870457,117.628548 58.790718,110.461998 58.905453,103.298607 
	C59.024368,95.874039 62.254505,92.763885 69.754929,92.743614 
	C85.751495,92.700363 101.749878,92.589767 117.743828,92.794716 
	C122.257774,92.852562 125.682533,91.430328 128.942398,88.439438 
	C138.516312,79.655464 148.105225,70.898560 160.212738,65.481812 
	C171.485641,60.438465 183.257782,57.998123 196.018967,57.672951 
M195.682587,156.936218 
	C201.106064,158.808868 205.468964,156.710602 209.332703,153.135162 
	C221.798920,141.599060 234.158371,129.946930 246.683899,118.475952 
	C251.926117,113.675102 258.803070,113.431366 264.082214,117.410728 
	C269.477417,121.477562 271.299164,128.079391 267.977570,134.266159 
	C266.171570,137.629959 266.806183,139.539017 269.300415,141.990509 
	C280.707245,153.201965 291.872101,164.660049 303.306183,175.843155 
	C308.765869,181.182968 313.317444,186.974319 315.455322,194.414886 
	C316.082397,196.597382 317.340759,197.709320 319.770905,197.692307 
	C330.601013,197.616425 341.432159,197.617859 352.262421,197.678574 
	C355.171295,197.694885 356.600067,196.513245 356.595062,193.556839 
	C356.556641,170.732391 356.536102,147.907898 356.520569,125.083420 
	C356.518066,121.378212 354.680847,119.614548 350.997589,119.597618 
	C345.334259,119.571594 339.649933,119.150909 334.013672,119.510849 
	C327.672333,119.915833 322.784393,117.636246 318.332428,113.352448 
	C313.175354,108.390144 307.745911,103.706512 302.359619,98.987564 
	C280.381592,79.732574 249.341782,80.114220 227.976028,100.006752 
	C215.548111,111.577728 203.269943,123.310272 190.980576,135.029037 
	C183.238968,142.411194 185.081512,152.266403 195.682587,156.936218 
M87.144127,214.694870 
	C91.510895,214.093536 93.317398,211.183609 93.717255,207.178696 
	C94.062263,203.723221 92.854149,200.996475 89.523529,199.462799 
	C86.170761,197.918884 82.950699,198.201996 80.251007,200.659943 
	C77.770905,202.917969 76.749313,205.780792 77.915787,209.220566 
	C79.308601,213.327805 82.291283,214.811798 87.144127,214.694870 
M388.363800,200.204254 
	C382.592377,197.597656 378.490204,198.322479 376.221680,202.349625 
	C374.180328,205.973480 375.003876,210.814636 378.065094,213.185928 
	C381.009552,215.466766 386.031281,215.316467 388.645172,212.869278 
	C391.715363,209.994873 391.842072,205.142944 388.363800,200.204254 
z"/>
</svg>