<svg version="1.1" id="Layer_1" xmlns="http://www.w3.org/2000/svg" xmlns:xlink="http://www.w3.org/1999/xlink" x="0px" y="0px"
	 width="100%" viewBox="0 0 496 320" enable-background="new 0 0 496 320" xml:space="preserve">
<path fill="#000000" opacity="1.000000" stroke="none" 
	d="
M330.281311,238.567963 
	C322.605988,241.917633 315.169952,242.435638 307.575836,239.715179 
	C304.559387,238.634598 303.180969,239.839096 302.170013,242.881744 
	C295.142853,264.031158 272.190002,271.427216 254.269165,258.170380 
	C250.333893,255.259293 247.795425,254.450272 243.136688,257.374054 
	C227.894669,266.939758 212.924820,264.681946 200.118149,251.850357 
	C189.759048,241.471085 179.439789,231.051361 169.004440,220.749268 
	C164.648239,216.448669 159.630859,213.361008 153.175797,213.254715 
	C150.374588,213.208572 149.147415,214.283966 149.313171,217.055664 
	C149.372726,218.051498 149.337494,219.055878 149.297028,220.054398 
	C148.782791,232.749832 142.065079,239.217758 129.354279,239.240128 
	C121.521889,239.253906 113.688873,239.298447 105.857170,239.222763 
	C94.508385,239.113098 86.987907,231.816132 86.958420,220.415298 
	C86.861435,182.919998 86.868111,145.424042 86.990273,107.928833 
	C87.027008,96.656189 94.343071,89.780487 105.735809,89.754082 
	C117.734344,89.726280 129.732986,89.743324 141.731583,89.744957 
	C149.285782,89.745979 149.308014,89.749420 149.310181,97.140144 
	C149.319901,130.136276 149.405457,163.132919 149.222122,196.128036 
	C149.193939,201.198013 150.240631,203.604309 155.919205,203.971497 
	C163.455093,204.458771 169.794296,208.321533 175.168854,213.640656 
	C185.826767,224.188660 196.508499,234.712601 207.156906,245.270172 
	C218.830154,256.843872 232.048645,256.603943 243.263794,244.431198 
	C246.284195,241.152908 249.243668,241.150604 252.385925,243.866653 
	C254.524109,245.714798 256.378479,247.888245 258.482971,249.779053 
	C264.963013,255.601044 274.682770,256.754425 282.213867,252.680664 
	C290.972687,247.942795 295.413422,239.967422 294.127380,231.053940 
	C293.745605,228.408005 293.767944,226.000824 296.344879,224.465637 
	C299.498810,222.586746 301.640076,224.691040 303.873322,226.481934 
	C311.026886,232.218628 318.830017,233.735703 327.112091,229.315948 
	C335.162231,225.019958 339.256165,218.131042 338.915161,208.904846 
	C338.707520,203.286560 336.048126,198.628601 332.213898,194.760162 
	C315.321716,177.717178 298.291504,160.810974 281.410400,143.757050 
	C278.877472,141.198166 277.226166,141.659790 274.828766,143.936951 
	C266.742950,151.617249 258.465607,159.096237 250.243881,166.632996 
	C233.195358,182.261124 203.171860,173.018219 197.638916,150.513336 
	C194.216797,136.594116 198.730072,125.410446 208.877899,115.912804 
	C224.320312,101.459778 239.463150,86.679588 255.119888,72.464211 
	C281.269012,48.722336 318.676575,48.768734 345.087097,72.163422 
	C348.079285,74.813927 351.157837,77.366745 354.182526,79.980835 
	C359.925140,84.943909 360.407349,86.520721 358.598541,94.349815 
	C356.382233,95.184792 355.249756,93.343430 353.953918,92.256180 
	C347.064514,86.475662 340.628601,80.080490 333.351379,74.850288 
	C311.190521,58.923107 282.154327,60.509212 262.024750,78.762917 
	C245.868088,93.413940 230.043518,108.437874 214.289764,123.524132 
	C204.245758,133.142548 203.316559,147.041962 211.553329,156.849976 
	C220.079803,167.002960 234.348343,167.841965 244.835266,158.471390 
	C254.770752,149.593567 264.408051,140.382401 274.199158,131.342407 
	C277.746552,128.067139 281.348389,124.850441 284.946533,121.630676 
	C287.478699,119.364792 290.323181,118.539291 292.898163,121.227928 
	C295.544983,123.991570 293.606567,126.451767 291.628204,128.631317 
	C286.140106,134.677551 286.098236,134.690735 291.922699,140.590424 
	C306.904053,155.765320 321.900970,170.924866 336.916077,186.066345 
	C340.812744,189.995804 344.486481,194.078415 346.372742,199.398956 
	C347.358154,202.178574 349.187164,203.171417 352.076996,203.106384 
	C358.073151,202.971466 364.085114,202.855835 370.070404,203.147095 
	C374.479004,203.361633 375.801971,201.709122 375.783661,197.369888 
	C375.642548,163.874420 375.705078,130.378067 375.710632,96.881996 
	C375.711792,89.773529 375.723389,89.764839 382.901428,89.758301 
	C394.733368,89.747528 406.565338,89.738213 418.397278,89.748741 
	C431.047241,89.760010 437.955658,96.383995 438.070923,109.071381 
	C438.231445,126.734573 438.125214,144.400223 438.127625,162.064819 
	C438.130157,180.562653 438.149261,199.060532 438.117584,217.558304 
	C438.091583,232.715729 431.564758,239.240158 416.533539,239.237732 
	C409.201080,239.236557 401.868225,239.285141 394.536224,239.226593 
	C383.124939,239.135468 375.876160,231.848785 375.711761,220.394821 
	C375.593536,212.157639 375.600250,212.295151 367.412292,212.694931 
	C363.101959,212.905411 358.762207,212.570389 354.437897,212.420349 
	C350.777100,212.293335 348.720612,213.690369 347.766876,217.529495 
	C345.387482,227.107391 339.632172,234.145676 330.281311,238.567963 
M134.855087,228.606339 
	C139.503098,226.437622 139.650116,222.136917 139.680069,217.955582 
	C139.769485,205.468628 139.705475,192.980576 139.706070,180.492966 
	C139.707275,155.351227 139.714752,130.209473 139.710236,105.067734 
	C139.709717,102.228371 140.143951,99.183296 135.699509,99.227112 
	C125.377686,99.328873 115.054375,99.271187 104.731796,99.311523 
	C100.901230,99.326492 98.645416,101.505585 97.256279,104.880608 
	C96.203926,107.437386 96.365219,110.106331 96.364563,112.761436 
	C96.356888,143.897232 96.360451,175.033035 96.364548,206.168839 
	C96.365166,210.830795 96.239136,215.498856 96.435318,220.152985 
	C96.625725,224.670120 98.435417,228.935028 103.281952,229.274475 
	C113.528412,229.992142 123.847885,230.549286 134.855087,228.606339 
M428.121277,193.495010 
	C428.121307,170.680664 428.113129,147.866302 428.126801,125.051949 
	C428.130371,119.071144 429.227722,113.085922 428.186920,107.111877 
	C427.161774,101.227730 425.086884,99.348495 419.173340,99.277863 
	C409.682556,99.164482 400.185791,99.388771 390.699310,99.155930 
	C386.642548,99.056358 385.195251,100.302002 385.210632,104.517509 
	C385.349915,142.651978 385.281036,180.787140 385.322845,218.922058 
	C385.331360,226.670425 388.416046,229.650131 396.318146,229.723785 
	C403.145203,229.787415 409.973480,229.762863 416.800964,229.726974 
	C425.431885,229.681595 428.477722,226.757477 428.535583,217.956741 
	C428.587006,210.136475 428.274323,202.313812 428.121277,193.495010 
z"/>
<path fill="#000000" opacity="1.000000" stroke="none" 
	d="
M241.582153,61.877586 
	C239.532440,63.532440 237.507553,64.359932 235.280441,64.140671 
	C209.930344,61.644913 190.418427,73.222801 172.943207,89.831093 
	C171.308304,91.384903 169.798523,93.337868 166.556137,93.468040 
	C165.390732,89.354179 164.260681,85.009865 167.903671,81.675323 
	C180.777908,69.891144 194.698273,59.769257 212.362061,56.338936 
	C223.504150,54.175133 234.727127,54.560806 246.102539,54.829052 
	C246.390976,58.697632 243.500137,59.749027 241.582153,61.877586 
z"/>
</svg>