<svg xmlns="http://www.w3.org/2000/svg" viewBox="0 0 448 336" stroke="currentColor" stroke-width="10px" xml:space="preserve"><path fill-opacity="0" d="M196.019 57.673c3.846.39 7.44-.932 10.554 1.125.469 2.464-1.334 3.48-2.536 4.72-3.478 3.59-7.084 7.055-10.6 10.608-6.764 6.839-13.302 13.452-23.09 16.702-9.396 3.119-16.074 11.154-23.163 17.901-7.815 7.44-16.554 11.373-27.438 10.766-6.485-.361-6.816.167-6.826 6.623-.027 18.996.05 37.992-.008 56.988-.01 3.324.413 6.092 4.43 6.441 11.693 1.017 20.374 7.568 28.303 15.428 11.123 11.026 22.142 22.157 33.248 33.2 5.903 5.87 10.913 5.092 15.084-2.226 5.346-9.381 15.142-10.905 23.058-3.55 2.074 1.927 3.954 4.066 6.065 5.948 4.466 3.983 9.632 5.377 15.232 2.932 5.633-2.46 9.603-6.527 10.42-12.99 1.514-11.988 10.88-16.866 21.803-11.363 8.744 4.406 15.466 2.094 19.124-6.384 2.124-4.92.367-9.006-2.881-12.318-12.715-12.964-25.683-25.679-38.47-38.573-2.279-2.298-3.967-2.204-6.262-.032-5.559 5.264-11.282 10.355-16.982 15.468-16.24 14.572-41.798 11.364-54.46-2.21-15.703-16.831-15.61-40.242.732-56.622 13.631-13.664 27.675-27 42.363-39.508 31.013-26.41 76.84-25.14 106.964 2.24 2.34 2.128 5.105 3.887 7.08 6.301 5.252 6.42 11.838 7.86 19.875 7.596 16.646-.548 33.321-.177 49.984-.158 9.307.01 12.494 2.998 12.506 12.113.05 36.325.069 72.651-.018 108.977-.03 12.609-7.061 19.61-19.568 19.48-7.124-.074-14.314.975-21.376-.96-2.301-.63-4.758-1.342-6.159-3.108-3.382-4.262-7.784-4.28-12.557-4.205-10.995.172-21.996.139-32.991.001-3.156-.04-5.302.893-7.01 3.65-7.406 11.954-18.71 17.138-32.31 17.447-4.582.105-7.452 1.236-10.278 5.134-11.993 16.537-35.057 24.627-55.837 12.54-2.417-1.407-4.328-1.603-6.882-.137-16.515 9.478-32.305 7.4-45.936-6.043-11.863-11.7-23.578-23.55-35.364-35.327-1.06-1.06-2.085-2.175-3.26-3.094-5.319-4.162-7.095-3.628-9.228 2.673-2.312 6.826-8.25 11.195-15.981 11.434-5.827.18-11.663.077-17.495.052-11.744-.05-18.967-7.228-18.988-19.078-.053-29.827-.02-59.654-.02-89.481 0-7.165-.08-14.332.035-21.495.12-7.425 3.35-10.535 10.85-10.555 15.996-.044 31.995-.154 47.989.05 4.514.059 7.939-1.364 11.198-4.355 9.574-8.784 19.163-17.54 31.27-22.957 11.274-5.044 23.046-7.484 35.807-7.809m-.336 99.263c5.423 1.873 9.786-.225 13.65-3.8 12.466-11.537 24.825-23.19 37.35-34.66 5.243-4.8 12.12-5.045 17.4-1.065 5.394 4.067 7.216 10.668 3.895 16.855-1.806 3.364-1.172 5.273 1.322 7.725 11.407 11.211 22.572 22.669 34.006 33.852 5.46 5.34 10.011 11.131 12.15 18.572.626 2.182 1.885 3.294 4.315 3.277 10.83-.076 21.661-.074 32.491-.013 2.91.016 4.338-1.166 4.333-4.122-.038-22.825-.059-45.65-.074-68.474-.003-3.705-1.84-5.468-5.523-5.485-5.664-.026-11.348-.447-16.984-.087-6.342.405-11.23-1.875-15.682-6.159-5.157-4.962-10.586-9.645-15.972-14.364-21.978-19.255-53.018-18.874-74.384 1.019-12.428 11.57-24.706 23.303-36.995 35.022-7.742 7.382-5.9 17.237 4.702 21.907M87.144 214.695c4.367-.601 6.173-3.511 6.573-7.516.345-3.456-.863-6.183-4.193-7.716-3.353-1.544-6.573-1.261-9.273 1.197-2.48 2.258-3.502 5.12-2.335 8.56 1.393 4.108 4.375 5.592 9.228 5.475m301.22-14.49c-5.772-2.607-9.874-1.883-12.142 2.145-2.042 3.623-1.218 8.465 1.843 10.836 2.945 2.28 7.966 2.13 10.58-.317 3.07-2.874 3.197-7.726-.281-12.665z"/></svg>