<svg xmlns="http://www.w3.org/2000/svg" viewBox="0 0 496 320" stroke="currentColor" stroke-width="10px" xml:space="preserve"><path fill-opacity="0" d="M330.281 238.568c-7.675 3.35-15.111 3.868-22.705 1.147-3.017-1.08-4.395.124-5.406 3.167-7.027 21.15-29.98 28.545-47.9 15.288-3.936-2.91-6.475-3.72-11.133-.796-15.242 9.566-30.212 7.308-43.019-5.524-10.359-10.379-20.678-20.799-31.114-31.1-4.356-4.301-9.373-7.389-15.828-7.495-2.801-.046-4.029 1.029-3.863 3.8.06.996.024 2-.016 3-.514 12.695-7.232 19.163-19.943 19.185-7.832.014-15.665.058-23.497-.017-11.349-.11-18.87-7.407-18.899-18.808-.097-37.495-.09-74.991.032-112.486.037-11.273 7.353-18.149 18.746-18.175 11.998-.028 23.997-.01 35.996-.009 7.554.001 7.576.004 7.578 7.395.01 32.996.095 65.993-.088 98.988-.028 5.07 1.019 7.476 6.697 7.843 7.536.488 13.875 4.35 19.25 9.67 10.658 10.548 21.34 21.072 31.988 31.63 11.673 11.573 24.892 11.333 36.107-.84 3.02-3.278 5.98-3.28 9.122-.564 2.138 1.848 3.992 4.021 6.097 5.912 6.48 5.822 16.2 6.975 23.73 2.902 8.76-4.738 13.2-12.714 11.914-21.627-.381-2.646-.36-5.053 2.218-6.588 3.154-1.88 5.295.225 7.528 2.016 7.154 5.737 14.957 7.254 23.24 2.834 8.05-4.296 12.143-11.185 11.802-20.411-.207-5.618-2.867-10.276-6.701-14.145-16.892-17.043-33.922-33.949-50.804-51.003-2.533-2.559-4.184-2.097-6.581.18-8.086 7.68-16.363 15.16-24.585 22.696-17.049 15.628-47.072 6.385-52.605-16.12-3.422-13.919 1.091-25.103 11.239-34.6 15.442-14.453 30.585-29.233 46.242-43.449 26.149-23.742 63.557-23.695 89.967-.3 2.992 2.65 6.07 5.203 9.096 7.817 5.742 4.963 6.224 6.54 4.416 14.369-2.217.835-3.35-1.007-4.645-2.094-6.89-5.78-13.325-12.176-20.603-17.406-22.16-15.927-51.197-14.34-71.326 3.913-16.157 14.65-31.981 29.675-47.735 44.761-10.044 9.619-10.973 23.518-2.737 33.326 8.527 10.153 22.795 10.992 33.282 1.621 9.936-8.877 19.573-18.089 29.364-27.129 3.548-3.275 7.15-6.492 10.748-9.711 2.532-2.266 5.376-3.092 7.951-.403 2.647 2.764.709 5.224-1.27 7.403-5.488 6.047-5.53 6.06.295 11.96a28720.892 28720.892 0 0 0 44.993 45.475c3.897 3.93 7.57 8.012 9.457 13.333.985 2.78 2.814 3.772 5.704 3.707 5.996-.135 12.008-.25 17.993.041 4.409.215 5.732-1.438 5.714-5.777-.141-33.496-.079-66.992-.073-100.488 0-7.108.012-7.117 7.19-7.124 11.832-.01 23.664-.02 35.496-.01 12.65.012 19.559 6.636 19.674 19.323.16 17.664.054 35.33.057 52.994.002 18.498.021 36.996-.01 55.493-.026 15.158-6.553 21.682-21.584 21.68-7.333-.001-14.666.047-21.998-.011-11.411-.092-18.66-7.378-18.824-18.832-.118-8.237-.112-8.1-8.3-7.7-4.31.21-8.65-.125-12.974-.275-3.66-.127-5.717 1.27-6.671 5.11-2.38 9.577-8.135 16.616-17.486 21.038m-195.426-9.962c4.648-2.168 4.795-6.47 4.825-10.65.09-12.487.025-24.975.026-37.463.001-25.142.009-50.284.004-75.425 0-2.84.434-5.885-4.01-5.84-10.322.1-20.646.043-30.968.084-3.83.014-6.087 2.194-7.476 5.569-1.052 2.556-.89 5.225-.891 7.88-.008 31.136-.005 62.272 0 93.408 0 4.662-.126 9.33.07 13.984.19 4.517 2 8.782 6.847 9.121 10.246.718 20.566 1.275 31.573-.668m293.266-35.111c0-22.814-.008-45.629.006-68.443.003-5.98 1.1-11.966.06-17.94-1.025-5.884-3.1-7.764-9.014-7.834-9.49-.114-18.987.11-28.474-.122-4.056-.1-5.504 1.146-5.488 5.362.139 38.134.07 76.27.112 114.404.008 7.748 3.093 10.728 10.995 10.802 6.827.063 13.655.039 20.483.003 8.63-.045 11.677-2.97 11.735-11.77.051-7.82-.262-15.643-.415-24.462z"/><path d="M241.582 61.878c-2.05 1.654-4.074 2.482-6.302 2.263-25.35-2.496-44.862 9.082-62.337 25.69-1.635 1.554-3.144 3.507-6.387 3.637-1.165-4.114-2.295-8.458 1.348-11.793 12.874-11.784 26.794-21.906 44.458-25.336 11.142-2.164 22.365-1.778 33.74-1.51.289 3.869-2.602 4.92-4.52 7.049z"/></svg>